<svg width="170" height="16" viewBox="0 0 170 16" fill="none" xmlns="http://www.w3.org/2000/svg">
  <path d="M133.097.366h15.693v2.158h-13.153v4.377h12.027v2.096h-12.027v4.479h13.399v2.157h-15.939z" fill="url(#a)"/>
  <path d="M133.097.366h15.693v2.158h-13.153v4.377h12.027v2.096h-12.027v4.479h13.399v2.157h-15.939z" fill="url(#b)"/>
  <path d="M112.09.366h3.401l11.227 12.662h.287V.366h2.479v15.268h-3.401L114.855 2.971h-.286v12.662h-2.479z" fill="url(#c)"/>
  <path d="M99.59 13.802q2.337 0 3.75-.57 1.434-.59 2.09-1.853.655-1.261.655-3.359 0-2.116-.655-3.379-.656-1.282-2.09-1.852-1.413-.59-3.77-.59h-1.106q-2.335 0-3.75.59-1.413.57-2.068 1.852-.657 1.262-.656 3.38 0 2.076.656 3.358.655 1.262 2.069 1.853 1.413.57 3.749.57zM98.342 16q-3.073 0-5.08-.896-1.99-.915-2.951-2.687-.942-1.79-.942-4.417 0-2.647.942-4.417.963-1.771 2.95-2.667Q95.248.001 98.341 0h1.393q3.094 0 5.081.916 1.988.896 2.93 2.687.963 1.77.963 4.417 0 2.627-.963 4.397-.943 1.772-2.95 2.687-1.988.896-5.06.896z" fill="url(#d)"/>
  <path d="M99.59 13.802q2.337 0 3.75-.57 1.434-.59 2.09-1.853.655-1.261.655-3.359 0-2.116-.655-3.379-.656-1.282-2.09-1.852-1.413-.59-3.77-.59h-1.106q-2.335 0-3.75.59-1.413.57-2.068 1.852-.657 1.262-.656 3.38 0 2.076.656 3.358.655 1.262 2.069 1.853 1.413.57 3.749.57zM98.342 16q-3.073 0-5.08-.896-1.99-.915-2.951-2.687-.942-1.79-.942-4.417 0-2.647.942-4.417.963-1.771 2.95-2.667Q95.248.001 98.341 0h1.393q3.094 0 5.081.916 1.988.896 2.93 2.687.963 1.77.963 4.417 0 2.627-.963 4.397-.943 1.772-2.95 2.687-1.988.896-5.06.896z" fill="url(#e)"/>
  <path d="M135.381 2.27h13.153V.62h-15.181v14.76h15.427v-1.65h-13.399V8.743h12.027V7.155h-12.027zm.256 4.63h12.027v2.097h-12.027v4.479h13.399v2.158h-15.939V.366h15.693v2.158h-13.153z" fill="url(#f)"/>
  <path d="M126.718 13.028h.287V.366h2.479v15.268h-3.402L114.855 2.972h-.286v12.662h-2.479V.366h3.4zm.543.254h-.659l-.076-.086L115.375.621h-3.029v14.758h1.967V2.718h.658l.076.086 11.152 12.575h3.029V.621h-1.967z" fill="url(#g)"/>
  <path d="M89.368 8q0-2.48.828-4.193l.114-.224q.963-1.77 2.95-2.667Q95.248.001 98.341 0h1.393q3.093 0 5.081.916 1.988.896 2.93 2.687.963 1.77.963 4.417l-.004.325q-.056 2.412-.959 4.072-.942 1.771-2.951 2.687-1.986.896-5.06.896v-.255c2.026 0 3.674-.295 4.955-.872 1.292-.59 2.23-1.449 2.83-2.575l.001-.002c.616-1.133.932-2.555.932-4.276 0-1.734-.316-3.162-.932-4.296l-.002-.003c-.6-1.14-1.532-1.998-2.809-2.573l-.002-.001c-1.28-.59-2.933-.892-4.973-.892h-1.393c-2.04 0-3.693.302-4.973.892h-.002c-1.278.577-2.218 1.429-2.83 2.557-.604 1.133-.912 2.561-.912 4.296 0 1.72.308 3.148.911 4.296l.12.209c.612 1.025 1.512 1.814 2.71 2.367 1.295.578 2.95.873 4.976.873V16q-2.881 0-4.826-.787l-.255-.109q-1.863-.858-2.826-2.469l-.124-.218q-.883-1.68-.939-4.092zm10.366 7.745V16h-1.393v-.255zm-8-7.725c0-1.344.194-2.457.6-3.325l.084-.17c.466-.912 1.203-1.57 2.198-1.97l.188-.075c.96-.362 2.183-.536 3.66-.536v.254q-2.336 0-3.75.59-1.413.57-2.069 1.853l-.08.161q-.575 1.234-.575 3.218l.003.257q.038 1.899.652 3.102.656 1.263 2.07 1.853 1.325.534 3.46.567l.29.003h1.126q2.336 0 3.749-.57 1.434-.591 2.09-1.853.614-1.183.653-3.1l.002-.259q0-1.984-.576-3.218l-.079-.16q-.656-1.283-2.09-1.853-1.326-.554-3.479-.588l-.29-.003v-.254c1.588 0 2.882.198 3.868.61 1.008.401 1.753 1.06 2.219 1.972.462.89.684 2.061.684 3.494 0 1.42-.222 2.585-.685 3.476-.467.9-1.212 1.556-2.219 1.97l-.002.001c-.984.397-2.271.59-3.845.59h-1.127c-1.574 0-2.86-.193-3.845-.59h-.003c-.994-.416-1.731-1.073-2.198-1.971v-.002c-.462-.903-.684-2.066-.684-3.474m7.837-6.076v.254h-1.107v-.254z" fill="url(#h)"/>
  <path d="M166.112 7.706q1.15 0 1.698-.355.548-.367.548-1.166 0-.787-.525-1.143-.514-.355-1.687-.355h-.838q-1.15 0-1.698.355-.536.344-.536 1.143 0 .777.513 1.154.526.367 1.687.367zm-1.005 1.365q-1.408 0-2.246-.4-.827-.41-1.217-1.31-.38-.899-.38-2.408 0-1.62.435-2.63.447-1.011 1.363-1.488.928-.489 2.402-.489h.76q1.15 0 1.922.278.781.278 1.173.821.39.545.391 1.332h-1.553q-.057-.532-.559-.81-.492-.277-1.419-.277h-.581q-.893 0-1.485.266a1.8 1.8 0 0 0-.883.81q-.29.555-.335 1.432h.123a2.85 2.85 0 0 1 1.106-.666q.648-.222 1.608-.222h.76q1.15 0 1.933.322.793.322 1.184.966.391.632.391 1.587 0 .966-.413 1.61-.402.632-1.229.954-.826.322-2.101.322z" fill="url(#i)"/>
  <path d="m151.651 7.55 5.831-3.252.045-.033a2 2 0 0 0 .458-.344 1.1 1.1 0 0 0 .257-.378q.089-.21.089-.488 0-.444-.234-.722-.236-.288-.726-.421-.492-.135-1.263-.134h-.413q-.783 0-1.251.167-.459.155-.704.577-.235.41-.28 1.199h-1.631q.022-1.143.403-1.887.39-.744 1.206-1.11.816-.378 2.145-.378h.603q1.218 0 2.067.311.849.3 1.285.91.447.61.447 1.51 0 .566-.179.977a2 2 0 0 1-.503.71q-.324.3-.838.566l-3.731 2.065v.11h5.385v1.366h-8.468z" fill="url(#j)"/>
  <path fill-rule="evenodd" clip-rule="evenodd" d="M8.508 1.281C8.268.747 7.885.423 7.252.448c-.555-.022-.95.229-1.187.74l-.229.493q-.228.487-.45.977Q2.994 7.998.605 13.342l-.045.103c-.183.409-.367.819-.503 1.243-.095.298-.087.629.168.88.39.386 1.284.393 1.627-.113.108-.16.212-.329.29-.505q.605-1.395 1.196-2.797c.043-.104.091-.149.211-.149q3.672.006 7.343 0c.139 0 .204.053.254.171.226.531.453 1.062.69 1.589l.076.171c.199.445.398.89.621 1.323.295.574.95.695 1.493.514a.71.71 0 0 0 .494-.553c.06-.276-.015-.527-.123-.77A3574 3574 0 0 0 9.111 2.627zM5.282 7.268l1.787-4.22 3.044 7.139H4.046zm33.472 6.66h-.961q-1.764.002-3.526-.003c-.13 0-.188.04-.24.156-.187.43-.378.86-.588 1.279-.298.596-1.17.648-1.632.291-.296-.229-.366-.56-.259-.892.137-.424.319-.835.501-1.244q1.46-3.268 2.926-6.534l.68-1.518.598-1.331q.622-1.38 1.237-2.762c.174-.39.409-.719.837-.848a1.2 1.2 0 0 1 .324-.036q.07 0 .14-.005c.59-.041.97.26 1.2.763a399 399 0 0 1 1.651 3.677l.538 1.2q1.859 4.15 3.707 8.306c.09.201.136.433.15.653.024.366-.203.642-.56.733-.669.172-1.225-.037-1.548-.728a28 28 0 0 1-.455-1.02c-.045-.107-.102-.14-.216-.139q-1.777.004-3.556.003zm.013-10.878-.452 1.06-.011.026-.004.01-.078.182-3.308 7.757h7.695zM79.5 15.874h2.565q2.468 0 4.934-.003c.15 0 .304-.021.447-.064.286-.085.49-.27.528-.574.03-.246.023-.496-.095-.73-.05-.099-.092-.201-.135-.304q-.039-.093-.08-.185l-.792-1.772q-2.165-4.84-4.333-9.68l-.085-.19a21 21 0 0 0-.618-1.302c-.213-.398-.564-.62-1.039-.589q-.079.004-.157.005a1.4 1.4 0 0 0-.372.04c-.436.13-.663.476-.839.869L76.82 7.22v.001l-.004.007-.001.004-.002.004-.001.002-2.85 6.36-.065.146v.002c-.14.31-.28.62-.383.942-.165.516.05.956.509 1.104.152.049.318.077.478.078q2.5.004 5 .003m-3.487-1.842L80.72 3.06l4.682 10.972zm-59.26-7.223v7.123q-.001.291.001.582c.008.645.266 1.017.81 1.15.152.037.312.05.468.05q2.138.005 4.275.001.195-.001.39-.013l.098-.005c.925-.045 1.832-.194 2.704-.505 1.847-.66 3.188-1.853 3.884-3.708.353-.942.51-1.922.54-2.929.034-1.103-.048-2.19-.366-3.25-.548-1.835-1.686-3.17-3.44-3.963-1.21-.546-2.5-.738-3.816-.755-1.009-.013-2.018-.01-3.027-.006l-1.052.003c-.184 0-.37.005-.552.03-.373.054-.674.233-.802.6-.07.2-.11.42-.11.631q-.007 2.483-.005 4.964m2.46 7.024h-.19l-.001-11.345.049-.005q.054-.006.107-.008l.6-.005a66 66 0 0 1 1.537-.005h.005c.828.01 1.655.02 2.474.186 1.907.39 3.223 1.668 3.607 3.576.292 1.448.294 2.9-.125 4.329-.498 1.703-1.682 2.681-3.384 3.08-.631.148-1.276.193-1.922.196q-.961.003-1.922.002zm31.495-3.976v1.282q.001 1.682-.002 3.364-.002.3-.06.595c-.083.424-.356.675-.78.738a1.9 1.9 0 0 1-.598-.007c-.529-.097-.793-.442-.822-1.03q-.003-.045-.001-.091v-2.179l.002-10.676c0-.177.009-.358.048-.53a.93.93 0 0 1 .816-.71q.267-.027.536-.029.509 0 1.017-.002c1.33-.002 2.662-.005 3.993.004.94.006 1.857.154 2.711.577 1.153.57 1.861 1.487 2.151 2.732.233 1 .214 1.996-.087 2.975-.435 1.413-1.426 2.273-2.82 2.698a6.4 6.4 0 0 1-1.844.268q-.658.002-1.315.001h-1.246q-.569.003-1.138.009l-.427.004a1 1 0 0 0-.134.007m.007-1.812.04.002.071.003 1.017.002c.89.003 1.779.006 2.669-.01a5.4 5.4 0 0 0 1.25-.164c.852-.222 1.485-.719 1.757-1.59.146-.471.18-.957.139-1.444-.078-.934-.479-1.67-1.359-2.095a3.6 3.6 0 0 0-1.557-.348c-.932-.008-1.865-.007-2.797-.006l-1.068.001a2 2 0 0 0-.162.008zm18.303-5.333v-.237h4.373q.165 0 .326-.012c.5-.035.802-.334.846-.836.046-.53-.181-.874-.671-.996a1.8 1.8 0 0 0-.42-.045Q68.838.582 64.2.583h-1.895a1 1 0 0 0-.09 0c-.34.025-.66.095-.848.422-.115.2-.128.421-.113.644.029.42.277.714.684.799.12.025.248.026.372.026h4.463v10.377l.001 1.841c.002.564.22.938.632 1.087q.438.16.893.037c.348-.095.57-.311.65-.655.044-.187.067-.384.067-.577q.004-4.942.003-9.886z" fill="#fff"/>
  <defs>
    <linearGradient id="a" x1="119.341" y1=".366" x2="119.341" y2="14.616" gradientUnits="userSpaceOnUse">
      <stop stop-color="gray"/>
      <stop offset="1" stop-color="#3b3b3b"/>
    </linearGradient>
    <linearGradient id="b" x1="139.742" y1=".366" x2="139.742" y2="14.616" gradientUnits="userSpaceOnUse">
      <stop stop-color="#9c9c9c"/>
      <stop offset="1" stop-color="#515151"/>
    </linearGradient>
    <linearGradient id="c" x1="119.341" y1=".366" x2="119.341" y2="14.616" gradientUnits="userSpaceOnUse">
      <stop stop-color="#9c9c9c"/>
      <stop offset="1" stop-color="#515151"/>
    </linearGradient>
    <linearGradient id="d" x1="119.341" y1=".366" x2="119.341" y2="14.616" gradientUnits="userSpaceOnUse">
      <stop stop-color="gray"/>
      <stop offset="1" stop-color="#3b3b3b"/>
    </linearGradient>
    <linearGradient id="e" x1="97.43" y1="0" x2="97.43" y2="14.933" gradientUnits="userSpaceOnUse">
      <stop stop-color="#9c9c9c"/>
      <stop offset="1" stop-color="#515151"/>
    </linearGradient>
    <linearGradient id="f" x1="141.066" y1=".366" x2="141.066" y2="15.634" gradientUnits="userSpaceOnUse">
      <stop stop-color="#fff" stop-opacity=".2"/>
      <stop offset="1" stop-color="#fff" stop-opacity=".07"/>
    </linearGradient>
    <linearGradient id="g" x1="120.787" y1=".366" x2="120.787" y2="15.634" gradientUnits="userSpaceOnUse">
      <stop stop-color="#fff" stop-opacity=".2"/>
      <stop offset="1" stop-color="#fff" stop-opacity=".07"/>
    </linearGradient>
    <linearGradient id="h" x1="99.038" y1="0" x2="99.038" y2="16" gradientUnits="userSpaceOnUse">
      <stop stop-color="#fff" stop-opacity=".2"/>
      <stop offset="1" stop-color="#fff" stop-opacity=".07"/>
    </linearGradient>
    <linearGradient id="i" x1="165.632" y1=".346" x2="165.632" y2="9.071" gradientUnits="userSpaceOnUse">
      <stop stop-color="#ddd"/>
      <stop offset="1" stop-color="gray"/>
    </linearGradient>
    <linearGradient id="j" x1="155.885" y1=".346" x2="155.885" y2="8.871" gradientUnits="userSpaceOnUse">
      <stop stop-color="#ddd"/>
      <stop offset="1" stop-color="gray"/>
    </linearGradient>
  </defs>
</svg>
