<svg width="170" height="16" viewBox="0 0 170 16" fill="none" xmlns="http://www.w3.org/2000/svg">
<path d="M133.097 0.366211H148.79V2.52397H135.637V6.90056H147.664V8.99725H135.637V13.4756H149.036V15.6334H133.097V0.366211Z" fill="url(#paint0_linear_26509_79829)"/>
<path d="M133.097 0.366211H148.79V2.52397H135.637V6.90056H147.664V8.99725H135.637V13.4756H149.036V15.6334H133.097V0.366211Z" fill="url(#paint1_linear_26509_79829)"/>
<path d="M112.09 0.366211H115.491L126.718 13.0278H127.005V0.366211H129.484V15.6334H126.083L114.855 2.97181H114.569V15.6334H112.09V0.366211Z" fill="url(#paint2_linear_26509_79829)"/>
<path d="M112.09 0.366211H115.491L126.718 13.0278H127.005V0.366211H129.484V15.6334H126.083L114.855 2.97181H114.569V15.6334H112.09V0.366211Z" fill="url(#paint3_linear_26509_79829)"/>
<path d="M99.5909 13.8014C101.148 13.8014 102.398 13.6114 103.34 13.2314C104.296 12.8379 104.993 12.2204 105.43 11.379C105.867 10.5376 106.085 9.41803 106.085 8.02023C106.085 6.60887 105.867 5.48249 105.43 4.6411C104.993 3.78614 104.296 3.16866 103.34 2.78868C102.398 2.39513 101.141 2.19835 99.5704 2.19835H98.464C96.907 2.19835 95.6572 2.39513 94.7148 2.78868C93.7723 3.16866 93.0826 3.78614 92.6455 4.6411C92.2084 5.48249 91.9899 6.60887 91.9899 8.02023C91.9899 9.40446 92.2084 10.5241 92.6455 11.379C93.0826 12.2204 93.7723 12.8379 94.7148 13.2314C95.6572 13.6114 96.907 13.8014 98.464 13.8014H99.5909ZM98.3411 15.9999C96.2923 15.9999 94.5987 15.7013 93.2601 15.1042C91.9353 14.4935 90.9519 13.5978 90.3099 12.4172C89.6816 11.2229 89.3675 9.75051 89.3675 7.99988C89.3675 6.23567 89.6816 4.76324 90.3099 3.58258C90.9519 2.40191 91.9353 1.51302 93.2601 0.915908C94.585 0.305221 96.2787 -0.00012207 98.3411 -0.00012207H99.7343C101.797 -0.00012207 103.49 0.305221 104.815 0.915908C106.14 1.51302 107.117 2.4087 107.745 3.60293C108.387 4.78359 108.708 6.25603 108.708 8.02023C108.708 9.77087 108.387 11.2365 107.745 12.4172C107.117 13.5978 106.133 14.4935 104.795 15.1042C103.47 15.7013 101.783 15.9999 99.7343 15.9999H98.3411Z" fill="url(#paint4_linear_26509_79829)"/>
<path d="M99.5909 13.8014C101.148 13.8014 102.398 13.6114 103.34 13.2314C104.296 12.8379 104.993 12.2204 105.43 11.379C105.867 10.5376 106.085 9.41803 106.085 8.02023C106.085 6.60887 105.867 5.48249 105.43 4.6411C104.993 3.78614 104.296 3.16866 103.34 2.78868C102.398 2.39513 101.141 2.19835 99.5704 2.19835H98.464C96.907 2.19835 95.6572 2.39513 94.7148 2.78868C93.7723 3.16866 93.0826 3.78614 92.6455 4.6411C92.2084 5.48249 91.9899 6.60887 91.9899 8.02023C91.9899 9.40446 92.2084 10.5241 92.6455 11.379C93.0826 12.2204 93.7723 12.8379 94.7148 13.2314C95.6572 13.6114 96.907 13.8014 98.464 13.8014H99.5909ZM98.3411 15.9999C96.2923 15.9999 94.5987 15.7013 93.2601 15.1042C91.9353 14.4935 90.9519 13.5978 90.3099 12.4172C89.6816 11.2229 89.3675 9.75051 89.3675 7.99988C89.3675 6.23567 89.6816 4.76324 90.3099 3.58258C90.9519 2.40191 91.9353 1.51302 93.2601 0.915908C94.585 0.305221 96.2787 -0.00012207 98.3411 -0.00012207H99.7343C101.797 -0.00012207 103.49 0.305221 104.815 0.915908C106.14 1.51302 107.117 2.4087 107.745 3.60293C108.387 4.78359 108.708 6.25603 108.708 8.02023C108.708 9.77087 108.387 11.2365 107.745 12.4172C107.117 13.5978 106.133 14.4935 104.795 15.1042C103.47 15.7013 101.783 15.9999 99.7343 15.9999H98.3411Z" fill="url(#paint5_linear_26509_79829)"/>
<path d="M148.69 0.46582V2.42383H135.537V7.00098H147.564V8.89746H135.537V13.5752H148.937V15.5332H133.196V0.46582H148.69Z" stroke="url(#paint6_linear_26509_79829)" stroke-opacity="0.1" stroke-width="0.2"/>
<path d="M115.445 0.46582L126.643 13.0938L126.673 13.1279H127.104V0.46582H129.384V15.5332H126.128L114.93 2.90527L114.9 2.87207H114.469V15.5332H112.189V0.46582H115.445Z" stroke="url(#paint7_linear_26509_79829)" stroke-opacity="0.1" stroke-width="0.2"/>
<path d="M104.753 15.0126C103.446 15.6019 101.774 15.9002 99.7346 15.9003H98.3411C96.3011 15.9003 94.6218 15.6022 93.3001 15.0126C91.994 14.4101 91.0282 13.5285 90.3977 12.369C89.7794 11.193 89.4671 9.73821 89.4671 7.99988C89.4671 6.24739 89.7785 4.79196 90.3968 3.62976L90.3977 3.63074C91.0284 2.47085 91.9944 1.59563 93.3011 1.00671H93.302C94.6095 0.404053 96.2876 0.0994873 98.3411 0.0994873H99.7346C101.66 0.099524 103.255 0.367392 104.524 0.897339L104.774 1.00671C106.08 1.5954 107.039 2.47643 107.657 3.64929L107.658 3.65027C108.289 4.8124 108.608 6.26782 108.608 8.02039C108.608 9.75893 108.289 11.2069 107.658 12.369L107.657 12.37C107.04 13.5292 106.074 14.41 104.753 15.0126ZM98.4641 2.09851C96.9001 2.09851 95.6354 2.29556 94.6761 2.69617C93.7137 3.08449 93.0055 3.71774 92.5569 4.5946C92.1097 5.4555 91.8899 6.60019 91.8899 8.02039C91.8899 9.23983 92.0583 10.2627 92.3997 11.0848L92.5569 11.4247C93.0057 12.2885 93.7138 12.9223 94.6761 13.3241H94.677C95.6359 13.7107 96.9004 13.9012 98.4641 13.9012H99.5911C101.155 13.9012 102.418 13.7106 103.377 13.3241H103.378C104.354 12.9224 105.07 12.289 105.519 11.4247C105.966 10.564 106.186 9.42689 106.186 8.02039C106.186 6.60019 105.965 5.4555 105.518 4.5946C105.069 3.71714 104.354 3.08425 103.377 2.69617H103.378C102.419 2.29567 101.148 2.09853 99.5706 2.09851H98.4641Z" stroke="url(#paint8_linear_26509_79829)" stroke-opacity="0.1" stroke-width="0.2"/>
<path d="M166.112 7.70571C166.879 7.70571 167.445 7.58731 167.81 7.35051C168.175 7.10631 168.358 6.71781 168.358 6.18501C168.358 5.65962 168.183 5.27852 167.833 5.04172C167.49 4.80492 166.928 4.68652 166.146 4.68652H165.308C164.541 4.68652 163.975 4.80492 163.61 5.04172C163.252 5.27112 163.074 5.65222 163.074 6.18501C163.074 6.70301 163.245 7.08781 163.587 7.33941C163.938 7.58361 164.5 7.70571 165.274 7.70571H166.112ZM165.107 9.071C164.168 9.071 163.42 8.9378 162.861 8.6714C162.31 8.3976 161.904 7.96101 161.644 7.36161C161.39 6.76221 161.264 5.95931 161.264 4.95292C161.264 3.87252 161.409 2.99563 161.699 2.32223C161.997 1.64883 162.452 1.15303 163.062 0.834833C163.681 0.509235 164.481 0.346436 165.464 0.346436H166.224C166.991 0.346436 167.632 0.438935 168.146 0.623934C168.667 0.808933 169.058 1.08273 169.319 1.44533C169.579 1.80793 169.71 2.25193 169.71 2.77733H168.157C168.119 2.42213 167.933 2.15203 167.598 1.96703C167.27 1.78203 166.797 1.68953 166.179 1.68953H165.598C165.003 1.68953 164.507 1.77833 164.113 1.95593C163.725 2.12613 163.431 2.39623 163.23 2.76623C163.036 3.13622 162.925 3.61352 162.895 4.19812H163.018C163.331 3.89472 163.699 3.67272 164.124 3.53212C164.556 3.38412 165.092 3.31012 165.732 3.31012H166.492C167.259 3.31012 167.903 3.41742 168.425 3.63202C168.954 3.84662 169.348 4.16852 169.609 4.59772C169.87 5.01952 170 5.54862 170 6.18501C170 6.82881 169.862 7.36531 169.587 7.79451C169.319 8.2163 168.909 8.5345 168.358 8.7491C167.807 8.9637 167.107 9.071 166.257 9.071H165.107Z" fill="url(#paint9_linear_26509_79829)"/>
<path d="M166.112 7.70571C166.879 7.70571 167.445 7.58731 167.81 7.35051C168.175 7.10631 168.358 6.71781 168.358 6.18501C168.358 5.65962 168.183 5.27852 167.833 5.04172C167.49 4.80492 166.928 4.68652 166.146 4.68652H165.308C164.541 4.68652 163.975 4.80492 163.61 5.04172C163.252 5.27112 163.074 5.65222 163.074 6.18501C163.074 6.70301 163.245 7.08781 163.587 7.33941C163.938 7.58361 164.5 7.70571 165.274 7.70571H166.112ZM165.107 9.071C164.168 9.071 163.42 8.9378 162.861 8.6714C162.31 8.3976 161.904 7.96101 161.644 7.36161C161.39 6.76221 161.264 5.95931 161.264 4.95292C161.264 3.87252 161.409 2.99563 161.699 2.32223C161.997 1.64883 162.452 1.15303 163.062 0.834833C163.681 0.509235 164.481 0.346436 165.464 0.346436H166.224C166.991 0.346436 167.632 0.438935 168.146 0.623934C168.667 0.808933 169.058 1.08273 169.319 1.44533C169.579 1.80793 169.71 2.25193 169.71 2.77733H168.157C168.119 2.42213 167.933 2.15203 167.598 1.96703C167.27 1.78203 166.797 1.68953 166.179 1.68953H165.598C165.003 1.68953 164.507 1.77833 164.113 1.95593C163.725 2.12613 163.431 2.39623 163.23 2.76623C163.036 3.13622 162.925 3.61352 162.895 4.19812H163.018C163.331 3.89472 163.699 3.67272 164.124 3.53212C164.556 3.38412 165.092 3.31012 165.732 3.31012H166.492C167.259 3.31012 167.903 3.41742 168.425 3.63202C168.954 3.84662 169.348 4.16852 169.609 4.59772C169.87 5.01952 170 5.54862 170 6.18501C170 6.82881 169.862 7.36531 169.587 7.79451C169.319 8.2163 168.909 8.5345 168.358 8.7491C167.807 8.9637 167.107 9.071 166.257 9.071H165.107Z" fill="url(#paint10_linear_26509_79829)"/>
<path d="M151.651 7.55031L157.482 4.29802L157.527 4.26472C157.721 4.15372 157.873 4.03902 157.985 3.92062C158.104 3.80222 158.19 3.67642 158.242 3.54322C158.301 3.40262 158.331 3.23982 158.331 3.05482C158.331 2.75883 158.253 2.51833 158.097 2.33333C157.94 2.14093 157.698 2.00033 157.371 1.91153C157.043 1.82273 156.622 1.77833 156.108 1.77833H155.695C155.173 1.77833 154.756 1.83383 154.444 1.94483C154.138 2.04843 153.904 2.24083 153.74 2.52203C153.583 2.79583 153.49 3.19542 153.46 3.72082H151.829C151.844 2.95863 151.978 2.32963 152.232 1.83383C152.492 1.33803 152.894 0.968033 153.438 0.723834C153.982 0.472235 154.697 0.346436 155.583 0.346436H156.186C156.998 0.346436 157.687 0.450035 158.253 0.657234C158.819 0.857033 159.247 1.16043 159.538 1.56743C159.836 1.97443 159.985 2.47763 159.985 3.07703C159.985 3.45442 159.925 3.78002 159.806 4.05382C159.694 4.32022 159.527 4.55702 159.303 4.76422C159.087 4.96402 158.808 5.15272 158.465 5.33032L154.734 7.39491V7.50591H160.119V8.8712H151.651V7.55031Z" fill="url(#paint11_linear_26509_79829)"/>
<path d="M151.651 7.55031L157.482 4.29802L157.527 4.26472C157.721 4.15372 157.873 4.03902 157.985 3.92062C158.104 3.80222 158.19 3.67642 158.242 3.54322C158.301 3.40262 158.331 3.23982 158.331 3.05482C158.331 2.75883 158.253 2.51833 158.097 2.33333C157.94 2.14093 157.698 2.00033 157.371 1.91153C157.043 1.82273 156.622 1.77833 156.108 1.77833H155.695C155.173 1.77833 154.756 1.83383 154.444 1.94483C154.138 2.04843 153.904 2.24083 153.74 2.52203C153.583 2.79583 153.49 3.19542 153.46 3.72082H151.829C151.844 2.95863 151.978 2.32963 152.232 1.83383C152.492 1.33803 152.894 0.968033 153.438 0.723834C153.982 0.472235 154.697 0.346436 155.583 0.346436H156.186C156.998 0.346436 157.687 0.450035 158.253 0.657234C158.819 0.857033 159.247 1.16043 159.538 1.56743C159.836 1.97443 159.985 2.47763 159.985 3.07703C159.985 3.45442 159.925 3.78002 159.806 4.05382C159.694 4.32022 159.527 4.55702 159.303 4.76422C159.087 4.96402 158.808 5.15272 158.465 5.33032L154.734 7.39491V7.50591H160.119V8.8712H151.651V7.55031Z" fill="url(#paint12_linear_26509_79829)"/>
<path fill-rule="evenodd" clip-rule="evenodd" d="M8.50758 1.28121C8.26798 0.746692 7.885 0.422989 7.25191 0.448039C6.6972 0.425592 6.30116 0.676421 6.06543 1.18752C5.98945 1.35214 5.91285 1.51648 5.83626 1.6808C5.68475 2.00582 5.53324 2.33088 5.38665 2.65801C3.79074 6.21875 2.19615 9.77984 0.604488 13.3421L0.558703 13.4447C0.375957 13.8535 0.192495 14.2639 0.0563038 14.6884C-0.039359 14.9864 -0.0311966 15.3169 0.223795 15.5688C0.61363 15.9539 1.50757 15.9611 1.85072 15.4545C1.95944 15.2942 2.06326 15.1263 2.14032 14.9493C2.54517 14.0195 2.94219 13.0865 3.33692 12.1524C3.38034 12.0493 3.42801 12.0041 3.54849 12.0044C5.99589 12.0083 8.44363 12.0083 10.8914 12.0041C11.0298 12.0038 11.095 12.0565 11.1454 12.1749C11.3713 12.7061 11.5982 13.2368 11.8343 13.7635L11.911 13.9349C12.11 14.3797 12.3092 14.8251 12.5319 15.2581C12.8271 15.8316 13.4818 15.9529 14.0254 15.7717C14.2895 15.6839 14.4577 15.4991 14.5191 15.2183C14.5794 14.9431 14.504 14.692 14.396 14.4492C13.4177 12.2501 12.437 10.0521 11.4542 7.85482C10.6745 6.11163 9.89301 4.36946 9.11134 2.62717L8.50758 1.28121ZM5.28211 7.26745C5.87478 5.86807 6.46914 4.46471 7.0694 3.0471C8.09496 5.45227 9.10082 7.81155 10.1133 10.1868H4.04574L5.28211 7.26745ZM38.7542 13.9283L37.7927 13.9286C36.6173 13.9289 35.442 13.9292 34.2666 13.9251C34.137 13.9248 34.0786 13.9641 34.0273 14.0813C33.8396 14.511 33.6492 14.9405 33.4393 15.3598C33.1405 15.9558 32.2681 16.0082 31.8068 15.651C31.5113 15.4223 31.4405 15.0917 31.5482 14.7593C31.6853 14.335 31.8669 13.9235 32.049 13.5152C33.0221 11.3359 33.9987 9.15817 34.9752 6.98051L35.6558 5.4626C35.8547 5.01893 36.054 4.57542 36.2533 4.13191C36.6667 3.21184 37.0801 2.2918 37.4901 1.37028C37.6641 0.979234 37.8989 0.651298 38.3272 0.521816C38.4295 0.490971 38.5404 0.488528 38.6513 0.486088C38.6982 0.485055 38.7452 0.484021 38.7915 0.480824C39.3804 0.439833 39.7605 0.741089 39.9904 1.24405C40.4416 2.23247 40.8847 3.2245 41.3278 4.21654C41.4326 4.45124 41.5375 4.68595 41.6424 4.92061L42.1797 6.12163C43.4177 8.88884 44.6558 11.6563 45.8868 14.4267C45.9763 14.6281 46.023 14.8595 46.0373 15.08C46.0612 15.446 45.8343 15.7216 45.4771 15.813C44.8081 15.9845 44.2517 15.7756 43.9292 15.0853C43.7715 14.7479 43.6177 14.4085 43.4737 14.0656C43.4286 13.9579 43.3722 13.9258 43.2583 13.9261C42.0727 13.9289 40.8874 13.9287 39.7022 13.9285L38.7542 13.9283ZM38.7667 3.04996L38.3147 4.10974L38.3037 4.13567L38.2996 4.14534L38.2219 4.3275C37.1132 6.9276 36.0154 9.50214 34.914 12.0844H42.6092L38.7667 3.04996ZM79.5003 15.8738L80.7498 15.8736L82.0651 15.8738C83.7102 15.874 85.3545 15.8742 86.9988 15.8714C87.1482 15.8711 87.303 15.8496 87.4463 15.8073C87.7319 15.7224 87.9363 15.5366 87.9742 15.2324C88.0044 14.9864 87.9975 14.7373 87.879 14.5033C87.8295 14.4042 87.7869 14.3017 87.7443 14.1991C87.718 14.1371 87.6925 14.075 87.6646 14.0137L86.8718 12.2417C85.428 9.01516 83.985 5.78837 82.5389 2.56275L82.4537 2.37098C82.2579 1.93231 82.0612 1.49287 81.836 1.06982C81.6231 0.672262 81.2724 0.450712 80.797 0.480968C80.7452 0.484309 80.6925 0.485325 80.6399 0.486342C80.5129 0.488792 80.386 0.491246 80.2683 0.526189C79.8317 0.65567 79.6048 1.0015 79.4291 1.3945C78.5597 3.33692 77.6888 5.27904 76.8188 7.22115L76.8184 7.22215L76.8154 7.22871L76.8136 7.23288L76.8117 7.23704L76.8107 7.2392C75.8608 9.35904 74.9109 11.4788 73.9619 13.5989C73.94 13.6477 73.9181 13.6964 73.8961 13.7452L73.8955 13.7466C73.7559 14.0561 73.6154 14.3674 73.5126 14.6892C73.348 15.2048 73.5632 15.6453 74.0219 15.7926C74.1741 15.8415 74.3403 15.8701 74.4999 15.8704C76.1668 15.8743 77.8336 15.874 79.5003 15.8738ZM76.0129 14.0319L80.7212 3.05954L85.4033 14.0319H76.0129ZM16.754 6.80829V6.82284C16.7542 7.26941 16.7543 7.716 16.7543 8.16261C16.7543 9.99776 16.7543 11.8333 16.7547 13.6685C16.7547 13.7558 16.7543 13.8432 16.754 13.9305C16.7534 14.1246 16.7528 14.319 16.7553 14.513C16.7631 15.1582 17.0207 15.5297 17.5657 15.6631C17.7168 15.7002 17.8771 15.7126 18.0332 15.7129C19.458 15.7164 20.8832 15.7155 22.308 15.7142C22.4382 15.7142 22.5686 15.7075 22.6989 15.7008L22.7961 15.696C23.7207 15.6507 24.6277 15.502 25.5001 15.1907C27.3467 14.5316 28.6883 13.3377 29.3835 11.4832C29.7367 10.5404 29.8941 9.56084 29.9247 8.55432C29.9584 7.45078 29.8757 6.3645 29.5584 5.30295C29.0099 3.46841 27.8721 2.13326 26.1175 1.34108C24.9081 0.794848 23.6179 0.603228 22.3024 0.585661C21.2934 0.57238 20.2842 0.576125 19.275 0.579869C18.9244 0.58117 18.5738 0.58247 18.2232 0.583058C18.0387 0.583383 17.8526 0.587612 17.6708 0.613638C17.2976 0.667318 16.9975 0.846253 16.8692 1.21322C16.7993 1.41265 16.7598 1.63322 16.7592 1.84436C16.753 3.49907 16.7536 5.15368 16.754 6.80829ZM19.2131 13.8318H19.0231C19.0231 10.0394 19.0231 6.27211 19.0228 2.48656C19.0394 2.48516 19.0558 2.48348 19.072 2.4818C19.1083 2.47807 19.1437 2.47443 19.1792 2.47421C19.3794 2.47274 19.5796 2.47058 19.7798 2.46842C20.2918 2.4629 20.8039 2.45739 21.3158 2.46347L21.3207 2.46352C22.1487 2.47326 22.9756 2.48299 23.7948 2.65021C25.7019 3.03995 27.0183 4.31785 27.4022 6.22558C27.6938 7.67395 27.6958 9.12593 27.2775 10.5544C26.779 12.2579 25.5951 13.2358 23.8928 13.6353C23.262 13.7833 22.6175 13.8276 21.9707 13.8308C21.3301 13.8338 20.6894 13.8331 20.0488 13.8324C19.7703 13.8321 19.4916 13.8318 19.2131 13.8318ZM50.7091 9.85636V10.0675C50.7091 10.4243 50.7093 10.7813 50.7094 11.1381C50.7098 12.2594 50.7103 13.3806 50.7066 14.502C50.7059 14.7008 50.685 14.9022 50.6468 15.0971C50.5636 15.5209 50.2906 15.7718 49.8671 15.8349C49.6719 15.8639 49.4626 15.8635 49.2686 15.8277C48.74 15.7305 48.4759 15.3853 48.4466 14.7981C48.4449 14.7676 48.4452 14.7371 48.4456 14.7065C48.4457 14.6938 48.4459 14.6811 48.4459 14.6683V12.5275C48.4458 8.9691 48.4457 5.41055 48.4479 1.85223C48.4479 1.67525 48.457 1.49372 48.4959 1.32194C48.5827 0.93707 48.9183 0.652409 49.3121 0.612068C49.4901 0.593849 49.6693 0.583439 49.8482 0.583113C50.1869 0.582651 50.5257 0.582002 50.8645 0.581352C52.1955 0.578801 53.5267 0.576248 54.8576 0.585065C55.7982 0.591246 56.715 0.738621 57.5694 1.16188C58.7223 1.73251 59.4304 2.64896 59.72 3.89433C59.9525 4.89406 59.934 5.89023 59.6329 6.86849C59.198 8.28171 58.2074 9.14159 56.8129 9.56709C56.2138 9.74991 55.5958 9.83322 54.9686 9.83515C54.5303 9.83654 54.092 9.83623 53.6538 9.83592C53.2387 9.83569 52.8236 9.83538 52.4085 9.83646C52.029 9.83746 51.6493 9.84117 51.2697 9.84487C51.1275 9.84626 50.9851 9.84757 50.843 9.84888C50.8161 9.84911 50.7899 9.85088 50.7566 9.8532C50.7423 9.8542 50.7267 9.85528 50.7091 9.85636ZM50.716 8.04389L50.7566 8.04605C50.7834 8.04759 50.8053 8.04883 50.827 8.04883C51.1659 8.04891 51.5049 8.04999 51.8438 8.05107C52.7335 8.05384 53.623 8.0567 54.5125 8.04166C54.931 8.03448 55.3594 7.98272 55.7636 7.87735C56.6155 7.65514 57.2476 7.15836 57.5195 6.28648C57.6664 5.8154 57.6997 5.32969 57.6589 4.84299C57.5805 3.90864 57.1803 3.17307 56.3001 2.74753C55.8077 2.5094 55.283 2.40431 54.743 2.39943C53.8107 2.39143 52.8783 2.39279 51.946 2.39416C51.59 2.39468 51.2339 2.39521 50.878 2.39521C50.843 2.39521 50.808 2.39751 50.7717 2.39992C50.7535 2.40112 50.7349 2.40236 50.7157 2.40334C50.716 4.28635 50.716 6.15667 50.716 8.04389ZM69.019 2.71102V2.47417C69.1032 2.47417 69.1675 2.47417 69.2315 2.47482C70.6185 2.47482 72.0054 2.47482 73.3923 2.47417C73.5011 2.47417 73.6095 2.46929 73.7179 2.46181C74.2187 2.427 74.5204 2.12802 74.5638 1.62604C74.6098 1.0951 74.3829 0.751549 73.8925 0.630201C73.7573 0.596692 73.6134 0.584655 73.4736 0.584655C70.3826 0.582486 67.2912 0.582577 64.2001 0.582667C63.5818 0.582685 62.9636 0.582703 62.3454 0.582703C62.332 0.582703 62.3185 0.582456 62.305 0.582209C62.2749 0.581655 62.2449 0.581103 62.2148 0.583353C61.8743 0.607753 61.5556 0.6777 61.3672 1.00466C61.2516 1.20571 61.2393 1.42596 61.2543 1.64914C61.283 2.06914 61.5305 2.36291 61.9376 2.44782C62.0585 2.47319 62.1861 2.47353 62.3104 2.47353C63.4146 2.47479 64.5188 2.47468 65.623 2.47456C65.9384 2.47453 66.2538 2.4745 66.5693 2.4745H66.7733V2.70548V12.061C66.7733 12.3241 66.7731 12.5871 66.773 12.8501C66.7726 13.4642 66.7721 14.0782 66.774 14.6923C66.7756 15.2557 66.9947 15.6296 67.4058 15.7786C67.699 15.885 67.9948 15.8992 68.2994 15.8163C68.6471 15.7213 68.8681 15.5046 68.9488 15.1614C68.9928 14.9737 69.0157 14.7769 69.016 14.5842C69.0193 11.2888 69.0191 7.99321 69.0191 4.69777C69.019 4.03552 69.019 3.37326 69.019 2.71102Z" fill="#262829"/>
<defs>
<linearGradient id="paint0_linear_26509_79829" x1="157.8" y1="0.715841" x2="157.8" y2="14.3126" gradientUnits="userSpaceOnUse">
<stop stop-color="#B4B4B4"/>
<stop offset="1" stop-color="#808080"/>
</linearGradient>
<linearGradient id="paint1_linear_26509_79829" x1="157.8" y1="0.715841" x2="157.8" y2="14.3126" gradientUnits="userSpaceOnUse">
<stop stop-color="#A9A9A9"/>
<stop offset="1" stop-color="#6D6D6D"/>
</linearGradient>
<linearGradient id="paint2_linear_26509_79829" x1="119.341" y1="0.366212" x2="119.341" y2="14.6156" gradientUnits="userSpaceOnUse">
<stop stop-color="#808080"/>
<stop offset="1" stop-color="#3B3B3B"/>
</linearGradient>
<linearGradient id="paint3_linear_26509_79829" x1="139.047" y1="0.715841" x2="139.047" y2="14.3126" gradientUnits="userSpaceOnUse">
<stop stop-color="#A9A9A9"/>
<stop offset="1" stop-color="#6D6D6D"/>
</linearGradient>
<linearGradient id="paint4_linear_26509_79829" x1="119.341" y1="0.36629" x2="119.341" y2="14.6157" gradientUnits="userSpaceOnUse">
<stop stop-color="#B4B4B4"/>
<stop offset="1" stop-color="#808080"/>
</linearGradient>
<linearGradient id="paint5_linear_26509_79829" x1="119.341" y1="0.36629" x2="119.341" y2="14.6157" gradientUnits="userSpaceOnUse">
<stop stop-color="#A9A9A9"/>
<stop offset="1" stop-color="#6D6D6D"/>
</linearGradient>
<linearGradient id="paint6_linear_26509_79829" x1="141.066" y1="0.366211" x2="141.066" y2="15.6334" gradientUnits="userSpaceOnUse">
<stop/>
<stop offset="1" stop-opacity="0"/>
</linearGradient>
<linearGradient id="paint7_linear_26509_79829" x1="120.787" y1="0.366211" x2="120.787" y2="15.6334" gradientUnits="userSpaceOnUse">
<stop/>
<stop offset="1" stop-opacity="0"/>
</linearGradient>
<linearGradient id="paint8_linear_26509_79829" x1="99.0377" y1="-0.00012207" x2="99.0377" y2="15.9999" gradientUnits="userSpaceOnUse">
<stop/>
<stop offset="1" stop-opacity="0"/>
</linearGradient>
<linearGradient id="paint9_linear_26509_79829" x1="165.632" y1="0.346436" x2="165.632" y2="9.071" gradientUnits="userSpaceOnUse">
<stop stop-color="#DDDDDD"/>
<stop offset="1" stop-color="#808080"/>
</linearGradient>
<linearGradient id="paint10_linear_26509_79829" x1="165.632" y1="0.346436" x2="165.632" y2="9.071" gradientUnits="userSpaceOnUse">
<stop stop-color="#595959"/>
<stop offset="1" stop-color="#353738"/>
</linearGradient>
<linearGradient id="paint11_linear_26509_79829" x1="155.885" y1="0.346436" x2="155.885" y2="8.8712" gradientUnits="userSpaceOnUse">
<stop stop-color="#DDDDDD"/>
<stop offset="1" stop-color="#808080"/>
</linearGradient>
<linearGradient id="paint12_linear_26509_79829" x1="155.885" y1="0.346436" x2="155.885" y2="8.8712" gradientUnits="userSpaceOnUse">
<stop stop-color="#595959"/>
<stop offset="1" stop-color="#353738"/>
</linearGradient>
</defs>
</svg>
